<?xml version="1.0" standalone="no"?>
<!DOCTYPE svg PUBLIC "-//W3C//DTD SVG 20010904//EN"
 "http://www.w3.org/TR/2001/REC-SVG-20010904/DTD/svg10.dtd">
<svg version="1.0" xmlns="http://www.w3.org/2000/svg"
 width="571.000000pt" height="132.000000pt" viewBox="0 0 571.000000 132.000000"
 preserveAspectRatio="xMidYMid meet">

<g transform="translate(0.000000,132.000000) scale(0.100000,-0.100000)"
fill="#000000" stroke="none">
<path d="M3192 1080 c-117 -16 -310 -89 -349 -131 -31 -35 -225 -712 -221
-771 3 -41 5 -43 37 -46 54 -5 76 25 121 167 22 69 48 133 57 143 34 37 211
87 386 109 85 10 100 15 117 37 30 37 27 112 -4 141 -22 21 -34 23 -133 24
-109 0 -122 -3 -250 -54 -18 -7 -35 -10 -39 -7 -12 12 8 68 34 96 30 32 47 36
327 77 146 21 161 25 182 50 17 19 23 39 23 71 0 59 -32 94 -87 94 -21 0 -60
2 -88 4 -27 3 -79 1 -113 -4z"/>
<path d="M480 1065 c-46 -8 -104 -19 -128 -25 -43 -11 -128 -67 -166 -108 -22
-25 -104 -307 -146 -504 -35 -161 -39 -245 -12 -278 17 -21 18 -21 40 -3 12
10 38 54 57 98 19 44 42 86 52 93 20 15 187 12 215 -4 21 -12 84 -96 93 -123
3 -11 15 -21 25 -21 24 0 77 45 95 81 18 34 19 123 3 185 l-13 46 71 67 c93
86 137 143 164 210 50 128 45 199 -17 247 -73 55 -159 66 -333 39z m121 -235
c10 -6 19 -19 19 -30 0 -28 -99 -130 -164 -169 -51 -31 -144 -60 -188 -61 -21
0 -24 32 -8 89 5 20 14 55 20 78 8 31 19 47 38 57 25 13 123 31 212 39 19 2
39 5 43 5 5 1 17 -3 28 -8z"/>
<path d="M1153 1035 c-76 -17 -135 -43 -190 -83 -63 -47 -73 -90 -83 -364 -9
-280 -4 -349 32 -385 40 -40 100 -41 238 -4 63 16 139 33 169 37 79 10 119 62
92 120 -13 30 -14 30 -214 0 -156 -22 -159 -23 -183 -4 -13 11 -24 29 -24 41
0 30 33 82 65 103 25 16 159 44 280 58 132 16 155 32 130 92 -19 46 -45 62
-117 74 -69 11 -190 0 -228 -20 -10 -6 -35 -10 -55 -10 -29 0 -37 5 -45 26
-18 47 35 113 108 134 20 5 108 13 195 16 144 7 159 9 173 28 29 42 11 101
-39 132 -42 24 -214 30 -304 9z"/>
<path d="M2062 1016 c-182 -99 -371 -308 -452 -502 -29 -70 -32 -86 -28 -149
6 -86 37 -161 72 -175 14 -5 95 -14 180 -21 169 -13 251 -3 349 41 97 43 156
126 128 179 -15 27 -38 27 -114 -4 -137 -56 -211 -65 -346 -41 -106 19 -132
57 -97 141 23 54 180 205 285 274 51 33 99 61 105 61 7 0 25 -13 40 -29 37
-38 63 -44 87 -20 39 39 14 207 -38 255 -38 35 -93 32 -171 -10z"/>
<path d="M2442 1024 c-31 -66 -42 -197 -42 -488 0 -257 2 -295 18 -326 59
-119 98 35 109 442 4 134 2 222 -6 275 -18 114 -53 156 -79 97z"/>
<path d="M3773 1035 c-44 -7 -98 -18 -120 -25 -58 -19 -121 -76 -133 -119 -25
-95 -40 -599 -20 -672 6 -20 17 -43 26 -50 21 -18 30 -2 50 92 9 41 22 83 29
93 17 23 68 30 162 21 l78 -7 73 -74 c40 -41 77 -74 81 -74 4 0 17 10 29 23
31 33 29 106 -3 175 -37 80 -34 98 34 177 70 81 98 134 113 213 19 105 -3 157
-89 208 -42 24 -60 28 -138 30 -49 2 -127 -3 -172 -11z m199 -192 c79 -72
-106 -275 -272 -298 -71 -9 -75 -2 -75 124 0 105 1 112 25 136 47 47 281 75
322 38z"/>
<path d="M4553 1035 c-76 -17 -135 -43 -190 -83 -63 -47 -73 -90 -83 -364 -9
-280 -4 -349 32 -385 40 -40 100 -41 238 -4 63 16 139 33 169 37 79 10 119 62
92 120 -13 30 -14 30 -214 0 -156 -22 -159 -23 -183 -4 -13 11 -24 29 -24 41
0 30 33 82 65 103 25 16 159 44 280 58 132 16 155 32 130 92 -19 46 -45 62
-117 74 -69 11 -190 0 -228 -20 -10 -6 -35 -10 -55 -10 -29 0 -37 5 -45 26
-18 47 35 113 108 134 20 5 108 13 195 16 144 7 159 9 173 28 29 42 11 101
-39 132 -42 24 -214 30 -304 9z"/>
<path d="M5263 1035 c-76 -17 -135 -43 -190 -83 -63 -47 -73 -90 -83 -364 -9
-280 -4 -349 32 -385 40 -40 100 -41 238 -4 63 16 139 33 169 37 79 10 119 62
92 120 -13 30 -14 30 -214 0 -156 -22 -159 -23 -183 -4 -13 11 -24 29 -24 41
0 30 33 82 65 103 25 16 159 44 280 58 132 16 155 32 130 92 -19 46 -45 62
-117 74 -69 11 -190 0 -228 -20 -10 -6 -35 -10 -55 -10 -29 0 -37 5 -45 26
-18 47 35 113 108 134 20 5 108 13 195 16 144 7 159 9 173 28 29 42 11 101
-39 132 -42 24 -214 30 -304 9z"/>
</g>
</svg>
